<svg xmlns="http://www.w3.org/2000/svg" viewBox="0 0 520 420" role="img" aria-label="Abstract AI data and software visual">
  <defs>
    <linearGradient id="bg" x1="36" x2="486" y1="44" y2="360" gradientUnits="userSpaceOnUse">
      <stop stop-color="#8b5cf6" stop-opacity="0.95"/>
      <stop offset="0.55" stop-color="#f472b6" stop-opacity="0.88"/>
      <stop offset="1" stop-color="#06b6d4" stop-opacity="0.95"/>
    </linearGradient>
    <linearGradient id="glass" x1="85" x2="415" y1="52" y2="349" gradientUnits="userSpaceOnUse">
      <stop stop-color="#ffffff" stop-opacity="0.34"/>
      <stop offset="1" stop-color="#ffffff" stop-opacity="0.08"/>
    </linearGradient>
    <filter id="shadow" x="-20%" y="-20%" width="140%" height="140%">
      <feDropShadow dx="0" dy="24" stdDeviation="24" flood-color="#050816" flood-opacity="0.32"/>
    </filter>
  </defs>
  <path d="M91 74c55-49 150-58 218-28 69 31 173 84 177 156 4 72-93 163-178 185-85 23-179-18-226-78C34 249 36 123 91 74Z" fill="url(#bg)" opacity="0.24"/>
  <g filter="url(#shadow)">
    <rect x="92" y="62" width="336" height="244" rx="34" fill="url(#glass)" stroke="#fff" stroke-opacity="0.25"/>
    <rect x="123" y="97" width="132" height="16" rx="8" fill="#fff" opacity="0.78"/>
    <rect x="123" y="128" width="238" height="12" rx="6" fill="#fff" opacity="0.33"/>
    <rect x="123" y="153" width="178" height="12" rx="6" fill="#fff" opacity="0.24"/>
    <g fill="none" stroke="#fff" stroke-linecap="round" stroke-width="5" opacity="0.72">
      <path d="M142 232l45-45 42 32 55-70 74 86"/>
      <path d="M142 257h240" opacity="0.38"/>
    </g>
    <circle cx="188" cy="187" r="11" fill="#06b6d4"/>
    <circle cx="230" cy="219" r="11" fill="#f472b6"/>
    <circle cx="284" cy="149" r="11" fill="#8b5cf6"/>
    <circle cx="358" cy="235" r="11" fill="#fbbf24"/>
  </g>
  <g>
    <circle cx="116" cy="340" r="30" fill="#8b5cf6" opacity="0.9"/>
    <circle cx="404" cy="338" r="22" fill="#06b6d4" opacity="0.9"/>
    <circle cx="438" cy="88" r="16" fill="#f472b6" opacity="0.9"/>
    <path d="M116 340h288M404 338L438 88" stroke="#fff" stroke-opacity="0.22" stroke-width="3"/>
  </g>
</svg>
