<svg xmlns="http://www.w3.org/2000/svg" viewBox="0 0 560 380" role="img" aria-label="Academy management system dashboard">
  <defs>
    <linearGradient id="c" x1="90" x2="460" y1="60" y2="332" gradientUnits="userSpaceOnUse"><stop stop-color="#fbbf24"/><stop offset="0.55" stop-color="#f472b6"/><stop offset="1" stop-color="#8b5cf6"/></linearGradient>
    <filter id="s" x="-20%" y="-20%" width="140%" height="140%"><feDropShadow dx="0" dy="22" stdDeviation="18" flood-color="#111827" flood-opacity="0.22"/></filter>
  </defs>
  <path d="M94 118c28-58 104-82 169-76s144 41 178 98c34 58 22 139-25 179-48 40-132 39-199 27-67-11-116-34-144-78-28-45-7-92 21-150Z" fill="url(#c)" opacity="0.18"/>
  <g filter="url(#s)">
    <rect x="102" y="70" width="356" height="238" rx="30" fill="#101827" stroke="#fff" stroke-opacity="0.2"/>
    <rect x="128" y="100" width="88" height="178" rx="18" fill="#fff" opacity="0.1"/>
    <rect x="145" y="122" width="50" height="10" rx="5" fill="#fff" opacity="0.58"/>
    <rect x="145" y="156" width="52" height="10" rx="5" fill="#fff" opacity="0.25"/>
    <rect x="145" y="188" width="48" height="10" rx="5" fill="#fff" opacity="0.25"/>
    <rect x="145" y="220" width="56" height="10" rx="5" fill="#fff" opacity="0.25"/>
    <rect x="240" y="110" width="178" height="54" rx="16" fill="#8b5cf6" opacity="0.7"/>
    <rect x="240" y="184" width="78" height="72" rx="18" fill="#06b6d4" opacity="0.78"/>
    <rect x="340" y="184" width="78" height="72" rx="18" fill="#f472b6" opacity="0.78"/>
    <path d="M266 137h118M263 220h30M363 220h30" stroke="#fff" stroke-width="8" stroke-linecap="round" opacity="0.8"/>
  </g>
</svg>
