<svg xmlns="http://www.w3.org/2000/svg" viewBox="0 0 560 380" role="img" aria-label="Data science dashboard and machine learning visualization">
  <defs>
    <linearGradient id="b" x1="88" x2="474" y1="52" y2="326" gradientUnits="userSpaceOnUse"><stop stop-color="#06b6d4"/><stop offset="1" stop-color="#8b5cf6"/></linearGradient>
    <filter id="s" x="-20%" y="-20%" width="140%" height="140%"><feDropShadow dx="0" dy="22" stdDeviation="18" flood-color="#111827" flood-opacity="0.22"/></filter>
  </defs>
  <circle cx="148" cy="94" r="54" fill="#06b6d4" opacity="0.22"/>
  <circle cx="430" cy="286" r="74" fill="#8b5cf6" opacity="0.18"/>
  <g filter="url(#s)">
    <rect x="96" y="64" width="368" height="252" rx="30" fill="#101827" stroke="#fff" stroke-opacity="0.2"/>
    <rect x="126" y="98" width="128" height="14" rx="7" fill="#fff" opacity="0.8"/>
    <rect x="126" y="130" width="92" height="12" rx="6" fill="#fff" opacity="0.35"/>
    <g transform="translate(126 174)">
      <rect x="0" y="46" width="34" height="58" rx="10" fill="#06b6d4"/>
      <rect x="52" y="18" width="34" height="86" rx="10" fill="#8b5cf6"/>
      <rect x="104" y="64" width="34" height="40" rx="10" fill="#f472b6"/>
      <rect x="156" y="0" width="34" height="104" rx="10" fill="#fbbf24"/>
      <line x1="0" y1="116" x2="220" y2="116" stroke="#fff" stroke-opacity="0.25" stroke-width="4"/>
    </g>
    <path d="M300 222c28-54 58-70 94-48 25 16 34 48 24 80" fill="none" stroke="url(#b)" stroke-width="16" stroke-linecap="round"/>
    <circle cx="300" cy="222" r="10" fill="#fff"/>
    <circle cx="394" cy="174" r="10" fill="#fff"/>
    <circle cx="418" cy="254" r="10" fill="#fff"/>
  </g>
</svg>
