<svg xmlns="http://www.w3.org/2000/svg" viewBox="0 0 560 380" role="img" aria-label="Makeup ecommerce and virtual try-on interface">
  <defs>
    <linearGradient id="a" x1="64" x2="486" y1="36" y2="348" gradientUnits="userSpaceOnUse"><stop stop-color="#f472b6"/><stop offset="1" stop-color="#8b5cf6"/></linearGradient>
    <filter id="s" x="-20%" y="-20%" width="140%" height="140%"><feDropShadow dx="0" dy="22" stdDeviation="18" flood-color="#111827" flood-opacity="0.22"/></filter>
  </defs>
  <rect x="74" y="46" width="412" height="288" rx="34" fill="#fff" opacity="0.14"/>
  <g filter="url(#s)">
    <rect x="104" y="74" width="352" height="226" rx="28" fill="#101827" stroke="#fff" stroke-opacity="0.2"/>
    <rect x="130" y="105" width="112" height="150" rx="22" fill="url(#a)" opacity="0.84"/>
    <circle cx="186" cy="150" r="32" fill="#ffe4ef"/>
    <path d="M162 212c15-22 40-22 55 0" stroke="#fff" stroke-width="8" stroke-linecap="round" opacity="0.8"/>
    <rect x="270" y="112" width="136" height="16" rx="8" fill="#fff" opacity="0.82"/>
    <rect x="270" y="145" width="106" height="12" rx="6" fill="#fff" opacity="0.42"/>
    <rect x="270" y="171" width="136" height="12" rx="6" fill="#fff" opacity="0.28"/>
    <g>
      <circle cx="286" cy="222" r="15" fill="#f472b6"/>
      <circle cx="326" cy="222" r="15" fill="#fb7185"/>
      <circle cx="366" cy="222" r="15" fill="#c084fc"/>
      <circle cx="406" cy="222" r="15" fill="#a855f7"/>
    </g>
    <rect x="270" y="254" width="118" height="30" rx="15" fill="#06b6d4"/>
  </g>
</svg>
